<?xml version="1.0" encoding="utf-8"?>
<!-- Generator: Adobe Illustrator 18.1.1, SVG Export Plug-In . SVG Version: 6.00 Build 0)  -->
<svg version="1.1" id="Layer_1" xmlns="http://www.w3.org/2000/svg" xmlns:xlink="http://www.w3.org/1999/xlink" x="0px" y="0px"
	 viewBox="0 0 4000 4000" enable-background="new 0 0 4000 4000" xml:space="preserve">
<g>
	<path fill="#702C3A" d="M1499.1,185.3l245.4-4.8c310.5,0,545.3,75.9,704.1,227.7c158.9,151.8,238.3,343.1,238.3,574
		c0,163.8-38.2,306.1-114.3,427.2c-76.3,121-171.6,212.3-286,273.8c-114.3,61.5-266.8,92.3-457.5,92.3c-42.9,0-97.3-2.4-163.2-7.2
		c-117.5-9.6-183.5-14.4-197.8-14.4c-260.6,0-413.8,2.8-459.9,8.4c-26.2,0-39.3-6.7-39.3-20.1c0-9.3,4.8-15.6,14.3-18.7
		c9.5-3.1,38.9-7.8,88.2-14c63.6-8.8,108.2-34.4,134-76.8c25.8-42.4,41.9-174.3,48.3-395.7l19-634.4c0-73.5-5-144.5-14.9-212.9
		c-9.9-68.3-25.4-112.3-46.5-131.9c-21-19.6-54.6-33-100.7-40.2c-33.4-4.8-50-14-50-27.6c0-16.8,8.3-25.2,25-25.2
		c15.9,0,64.5,3.4,145.9,10.2C1313.1,181.9,1402.2,185.3,1499.1,185.3z M1457.4,1342.8c0,105.5,7,180.8,20.9,225.9
		c13.9,45.1,43.7,82.3,89.4,111.5c45.7,29.2,118.9,43.7,219.8,43.7c144.6,0,261.7-34.3,351.5-103c89.7-68.7,159.8-160.2,210.3-274.4
		c50.4-114.2,75.6-235.6,75.6-364.3c0-190.1-57.6-362.3-172.8-516.4c-115.2-154.1-294.3-231.3-537.3-231.3
		c-108,0-171,3.6-188.8,10.8s-26.8,28.3-26.8,63.5c0,31.2-2.8,86.7-8.3,166.5c-7.9,116.6-13.1,207.7-15.5,273.2l-10.7,329.5
		C1459.8,1232.1,1457.4,1320.4,1457.4,1342.8z"/>
</g>
<path fill="#702C3A" d="M2817.7,2247c-43.2-67.8-96.5-120.6-160.2-158.4c-63.7-37.9-159.8-77.1-288.1-117.7
	c-174.3-56.7-289.2-107.2-345-151.7c-55.8-44.5-83.5-108.5-83.1-191.8c0.3-68.5,26.2-133,77.9-193.7
	c51.6-60.7,127.9-90.8,228.9-90.4c102.7,0.4,197.3,36.7,283.8,108.9c86.5,72.9,151.6,164.2,195.5,273.7
	c7.4,16.8,16.2,25.1,26.2,25.1c18.4,0.1,27.6-7.4,27.7-22.4l-29-235.4c-10.5-91-18.6-151.6-24.3-181.6c-8.3-8.4-15.8-12.6-22.5-12.6
	c-12.5,0-22.2,9.9-28.9,30c-7.6,24.2-22.8,47.5-45.4,69.9c-65.8-36.2-128.9-63.1-189.3-80.9c-60.5-17.8-118.2-26.8-173.3-27
	c-146.1-0.6-269.7,41.8-370.6,127.3c-100.9,85.6-151.6,183.8-152.1,294.8c-0.2,53.4,12.9,108.8,39.4,166
	c26.5,57.3,68.2,108.9,125.2,154.6c57,45.7,164.7,94.4,323.1,146.1c123.4,39.7,213.6,75.6,270.7,107.5
	c57,31.9,102.8,73.9,137.2,125.8c34.4,51.9,51.5,108.7,51.3,170.5c-0.4,89.3-33.1,168.2-98.1,236.8c-40.5,42.7-90.6,72-150.2,87.9
	l15.3-4.4l-15.3,4.4c-0.3,0.1-0.5,0.2-0.8,0.2l-207.1,60c25.9,3,51.8,5.1,77.6,5.2c158.6,0.7,292.8-50.8,402.6-154.7
	c109.8-103.8,165-221.7,165.6-353.6C2882.2,2387.5,2860.8,2314.8,2817.7,2247z"/>
<path id="XMLID_1_" fill="none" stroke="#E9CE21" stroke-width="20" stroke-miterlimit="10" d="M2226.2,2960L2226.2,2960
	c-202.9,0-368.9-166-368.9-368.9v0c0-202.9,166-368.9,368.9-368.9h0c202.9,0,368.9,166,368.9,368.9v0
	C2595.1,2794.1,2429.1,2960,2226.2,2960z"/>
<path id="XMLID_2_" fill="none" stroke="#E9CE21" stroke-width="20" stroke-miterlimit="10" d="M1800.6,2960L1800.6,2960
	c-202.9,0-368.9-166-368.9-368.9v0c0-202.9,166-368.9,368.9-368.9h0c202.9,0,368.9,166,368.9,368.9v0
	C2169.5,2794.1,2003.5,2960,1800.6,2960z"/>
<g>
	<polygon fill="#E9CF22" points="1503.1,2055.7 1567.2,2071.3 1484.9,2114.7 	"/>
	<polygon fill="#E9CF22" points="1572.5,2067.8 1601.1,1995 1679.1,2013.2 	"/>
	<polygon fill="#E9CF22" points="1411.1,2096.5 1495.3,2051.4 1477.9,2114.7 	"/>
	<polygon fill="#E9CF22" points="1505.7,2046.2 1593.3,1999.8 1567.2,2063.1 	"/>
	<polygon fill="#E9CF22" points="1477.1,2121.6 1376.5,2177.1 1593.3,2266.4 1602.8,2260.4 	"/>
	<polygon fill="#E9CF22" points="1578.5,2069.5 1679.1,2014.1 1633.4,2246.6 1621,2249.9 	"/>
	<polygon fill="#E9CF22" points="1371.4,2174.6 1400,2101.7 1478.1,2119.9 	"/>
	<polygon fill="#E9CF22" points="1487.7,2117.4 1568.3,2074.9 1615.8,2250 1607.3,2255.2 	"/>
</g>
<rect x="188.3" y="3068.6" fill="none" stroke="#702C3A" stroke-width="20" stroke-miterlimit="10" width="3623.3" height="761.4"/>
<g>
	<text transform="matrix(1 0 0 1 579.0496 3480.3755)" fill="#712E3B" font-family="'BellMT'" font-size="386.5758">J</text>
	<text transform="matrix(1 0 0 1 903.3904 3480.3755)" fill="#712E3B" font-family="'BellMT'" font-size="386.5758">E</text>
	<text transform="matrix(1 0 0 1 1335.2878 3480.3755)" fill="#712E3B" font-family="'BellMT'" font-size="386.5758">W</text>
	<text transform="matrix(1 0 0 1 1908.8064 3480.3755)" fill="#712E3B" font-family="'BellMT'" font-size="386.5758">E</text>
	<text transform="matrix(1 0 0 1 2333.7996 3480.3755)" fill="#712E3B" font-family="'BellMT'" font-size="386.5758">L</text>
	<text transform="matrix(1 0 0 1 2748.3142 3480.4097)" fill="#712E3B" font-family="'BellMT'" font-size="386.5758">R</text>
	<text transform="matrix(1 0 0 1 3164.5769 3480.4263)" fill="#712E3B" font-family="'BellMT'" font-size="386.5758">Y</text>
</g>
<line fill="none" stroke="#C9C9C9" stroke-width="10" stroke-miterlimit="10" x1="628.6" y1="3554.9" x2="3325.1" y2="3554.9"/>
<g>
	<text transform="matrix(1 0 0 1 1670.4011 3736.7251)" fill="#010101" font-family="'BellMT'" font-size="191.0657">Est.</text>
	<text transform="matrix(1 0 0 1 2019.5994 3736.7085)" fill="#010101" font-family="'BellMT'" font-size="191.0657">1977</text>
</g>
</svg>
